{
  "timestamp": "2025-10-11T04:41:36.455531",
  "input_video": "/Volumes/Expansion/dev/dialogue-guardian/dialogue-guardian/samples/sample.mp4",
  "output_video": "FAILED",
  "total_segments": 2,
  "total_censored_duration": 0,
  "successful_segments": 0,
  "failed_segments": 0,
  "final_strategy_used": 3,
  "fallback_attempts": 2,
  "overall_success": false,
  "segments": [],
  "error_messages": [
    "FFmpeg command failed on attempt 1. Return code: 234",
    "FFmpeg stderr: ffmpeg version N-121299-gab7d1c64c9-tessus  https://evermeet.cx/ffmpeg/  Copyright (c) 2000-2025 the FFmpeg developers\n  built with Apple clang version 17.0.0 (clang-1700.3.19.1)\n  configuration: --cc=/usr/bin/clang --prefix=/opt/ffmpeg --extra-version=tessus --enable-avisynth --enable-fontconfig --enable-gpl --enable-libaom --enable-libass --enable-libbluray --enable-libdav1d --enable-libfreetype --enable-libgsm --enable-libharfbuzz --enable-libmodplug --enable-libmp3lame --enable-libmysofa --enable-libopencore-amrnb --enable-libopencore-amrwb --enable-libopenh264 --enable-libopenjpeg --enable-libopus --enable-librubberband --enable-libshine --enable-libsnappy --enable-libsoxr --enable-libspeex --enable-libtheora --enable-libtwolame --enable-libvidstab --enable-libvmaf --enable-libvo-amrwbenc --enable-libvorbis --enable-libvpx --enable-libwebp --enable-libx264 --enable-libx265 --enable-libxavs --enable-libxml2 --enable-libxvid --enable-libzimg --enable-libzmq --enable-libzvbi --enable-version3 --pkg-config-flags=--static --disable-ffplay\n  libavutil      60. 13.100 / 60. 13.100\n  libavcodec     62. 16.100 / 62. 16.100\n  libavformat    62.  6.100 / 62.  6.100\n  libavdevice    62.  2.100 / 62.  2.100\n  libavfilter    11.  9.100 / 11.  9.100\n  libswscale      9.  3.100 /  9.  3.100\n  libswresample   6.  2.100 /  6.  2.100\nInput #0, mov,mp4,m4a,3gp,3g2,mj2, from '/Volumes/Expansion/dev/dialogue-guardian/dialogue-guardian/samples/sample.mp4':\n  Metadata:\n    major_brand     : isom\n    minor_version   : 512\n    compatible_brands: isomiso2avc1mp41\n    encoder         : Lavf61.7.100\n  Duration: 00:00:09.50, start: 0.000000, bitrate: 170 kb/s\n  Stream #0:0[0x1](und): Video: h264 (High) (avc1 / 0x31637661), yuv420p(progressive), 1280x720 [SAR 1:1 DAR 16:9], 93 kb/s, 24 fps, 24 tbr, 12288 tbn (default)\n    Metadata:\n      handler_name    : VideoHandler\n      vendor_id       : [0][0][0][0]\n      encoder         : Lavc61.19.101 libx264\n  Stream #0:1[0x2](und): Audio: aac (LC) (mp4a / 0x6134706D), 22050 Hz, mono, fltp, 71 kb/s (default)\n    Metadata:\n      handler_name    : SoundHandler\n      vendor_id       : [0][0][0][0]\n[volume @ 0x7fbef4811b80] [Eval @ 0x7ff7b6545d78] Undefined constant or missing '(' in ''\n[volume @ 0x7fbef4811b80] Error when evaluating the expression '' for enable\n[AVFilterGraph @ 0x7fbef48118c0] Error initializing filters\nError opening output file /var/folders/kg/hjkys5ln2vlc78bntdl0v29w0000gn/T/tmpg3kt78b_/censored.mp4.\nError opening output files: Invalid argument\n",
    "FFmpeg command failed on attempt 2. Return code: 234",
    "FFmpeg stderr: ffmpeg version N-121299-gab7d1c64c9-tessus  https://evermeet.cx/ffmpeg/  Copyright (c) 2000-2025 the FFmpeg developers\n  built with Apple clang version 17.0.0 (clang-1700.3.19.1)\n  configuration: --cc=/usr/bin/clang --prefix=/opt/ffmpeg --extra-version=tessus --enable-avisynth --enable-fontconfig --enable-gpl --enable-libaom --enable-libass --enable-libbluray --enable-libdav1d --enable-libfreetype --enable-libgsm --enable-libharfbuzz --enable-libmodplug --enable-libmp3lame --enable-libmysofa --enable-libopencore-amrnb --enable-libopencore-amrwb --enable-libopenh264 --enable-libopenjpeg --enable-libopus --enable-librubberband --enable-libshine --enable-libsnappy --enable-libsoxr --enable-libspeex --enable-libtheora --enable-libtwolame --enable-libvidstab --enable-libvmaf --enable-libvo-amrwbenc --enable-libvorbis --enable-libvpx --enable-libwebp --enable-libx264 --enable-libx265 --enable-libxavs --enable-libxml2 --enable-libxvid --enable-libzimg --enable-libzmq --enable-libzvbi --enable-version3 --pkg-config-flags=--static --disable-ffplay\n  libavutil      60. 13.100 / 60. 13.100\n  libavcodec     62. 16.100 / 62. 16.100\n  libavformat    62.  6.100 / 62.  6.100\n  libavdevice    62.  2.100 / 62.  2.100\n  libavfilter    11.  9.100 / 11.  9.100\n  libswscale      9.  3.100 /  9.  3.100\n  libswresample   6.  2.100 /  6.  2.100\nInput #0, mov,mp4,m4a,3gp,3g2,mj2, from '/Volumes/Expansion/dev/dialogue-guardian/dialogue-guardian/samples/sample.mp4':\n  Metadata:\n    major_brand     : isom\n    minor_version   : 512\n    compatible_brands: isomiso2avc1mp41\n    encoder         : Lavf61.7.100\n  Duration: 00:00:09.50, start: 0.000000, bitrate: 170 kb/s\n  Stream #0:0[0x1](und): Video: h264 (High) (avc1 / 0x31637661), yuv420p(progressive), 1280x720 [SAR 1:1 DAR 16:9], 93 kb/s, 24 fps, 24 tbr, 12288 tbn (default)\n    Metadata:\n      handler_name    : VideoHandler\n      vendor_id       : [0][0][0][0]\n      encoder         : Lavc61.19.101 libx264\n  Stream #0:1[0x2](und): Audio: aac (LC) (mp4a / 0x6134706D), 22050 Hz, mono, fltp, 71 kb/s (default)\n    Metadata:\n      handler_name    : SoundHandler\n      vendor_id       : [0][0][0][0]\n[volume @ 0x7fcae5814400] [Eval @ 0x7ff7bc993d08] Undefined constant or missing '(' in ''\n[volume @ 0x7fcae5814400] Error when evaluating the expression '' for enable\n[AVFilterGraph @ 0x7fcae5813b80] Error initializing filters\nError opening output file /var/folders/kg/hjkys5ln2vlc78bntdl0v29w0000gn/T/tmpg3kt78b_/censored.mp4.\nError opening output files: Invalid argument\n",
    "FFmpeg command failed on attempt 3. Return code: 234",
    "FFmpeg stderr: ffmpeg version N-121299-gab7d1c64c9-tessus  https://evermeet.cx/ffmpeg/  Copyright (c) 2000-2025 the FFmpeg developers\n  built with Apple clang version 17.0.0 (clang-1700.3.19.1)\n  configuration: --cc=/usr/bin/clang --prefix=/opt/ffmpeg --extra-version=tessus --enable-avisynth --enable-fontconfig --enable-gpl --enable-libaom --enable-libass --enable-libbluray --enable-libdav1d --enable-libfreetype --enable-libgsm --enable-libharfbuzz --enable-libmodplug --enable-libmp3lame --enable-libmysofa --enable-libopencore-amrnb --enable-libopencore-amrwb --enable-libopenh264 --enable-libopenjpeg --enable-libopus --enable-librubberband --enable-libshine --enable-libsnappy --enable-libsoxr --enable-libspeex --enable-libtheora --enable-libtwolame --enable-libvidstab --enable-libvmaf --enable-libvo-amrwbenc --enable-libvorbis --enable-libvpx --enable-libwebp --enable-libx264 --enable-libx265 --enable-libxavs --enable-libxml2 --enable-libxvid --enable-libzimg --enable-libzmq --enable-libzvbi --enable-version3 --pkg-config-flags=--static --disable-ffplay\n  libavutil      60. 13.100 / 60. 13.100\n  libavcodec     62. 16.100 / 62. 16.100\n  libavformat    62.  6.100 / 62.  6.100\n  libavdevice    62.  2.100 / 62.  2.100\n  libavfilter    11.  9.100 / 11.  9.100\n  libswscale      9.  3.100 /  9.  3.100\n  libswresample   6.  2.100 /  6.  2.100\nInput #0, mov,mp4,m4a,3gp,3g2,mj2, from '/Volumes/Expansion/dev/dialogue-guardian/dialogue-guardian/samples/sample.mp4':\n  Metadata:\n    major_brand     : isom\n    minor_version   : 512\n    compatible_brands: isomiso2avc1mp41\n    encoder         : Lavf61.7.100\n  Duration: 00:00:09.50, start: 0.000000, bitrate: 170 kb/s\n  Stream #0:0[0x1](und): Video: h264 (High) (avc1 / 0x31637661), yuv420p(progressive), 1280x720 [SAR 1:1 DAR 16:9], 93 kb/s, 24 fps, 24 tbr, 12288 tbn (default)\n    Metadata:\n      handler_name    : VideoHandler\n      vendor_id       : [0][0][0][0]\n      encoder         : Lavc61.19.101 libx264\n  Stream #0:1[0x2](und): Audio: aac (LC) (mp4a / 0x6134706D), 22050 Hz, mono, fltp, 71 kb/s (default)\n    Metadata:\n      handler_name    : SoundHandler\n      vendor_id       : [0][0][0][0]\n[volume @ 0x7f98bc20b6c0] [Eval @ 0x7ff7b779ecc8] Undefined constant or missing '(' in ''\n[volume @ 0x7f98bc20b6c0] Error when evaluating the expression '' for enable\n[AVFilterGraph @ 0x7f98bc20e0c0] Error initializing filters\nError opening output file /var/folders/kg/hjkys5ln2vlc78bntdl0v29w0000gn/T/tmpg3kt78b_/censored.mp4.\nError opening output files: Invalid argument\n"
  ],
  "recommendations": [
    "✓ All segments successfully censored. No action needed.",
    "ℹ Aggressive filtering was required - input may have challenging audio",
    "⚠ Audio codec issues detected:",
    "  - Input video may use an unsupported audio codec",
    "  - Consider converting input to a standard format (MP4/AAC)"
  ]
}